<mxfile host="app.diagrams.net" modified="2023-02-23T12:34:30.833Z" agent="5.0 (Windows)" etag="p2smAZYJ52DkRUoOxJEe" version="20.8.23" type="github">
  <diagram id="C5RBs43oDa-KdzZeNtuy" name="Page-1">
    <mxGraphModel dx="1434" dy="782" grid="1" gridSize="10" guides="1" tooltips="1" connect="1" arrows="1" fold="1" page="1" pageScale="1" pageWidth="827" pageHeight="1169" math="0" shadow="0">
      <root>
        <mxCell id="WIyWlLk6GJQsqaUBKTNV-0" />
        <mxCell id="WIyWlLk6GJQsqaUBKTNV-1" parent="WIyWlLk6GJQsqaUBKTNV-0" />
        <mxCell id="-JEqV6GzJtBTvXwzg23v-13" style="edgeStyle=orthogonalEdgeStyle;rounded=0;orthogonalLoop=1;jettySize=auto;html=1;exitX=0.5;exitY=1;exitDx=0;exitDy=0;entryX=0.5;entryY=0;entryDx=0;entryDy=0;" edge="1" parent="WIyWlLk6GJQsqaUBKTNV-1" source="-JEqV6GzJtBTvXwzg23v-0" target="-JEqV6GzJtBTvXwzg23v-12">
          <mxGeometry relative="1" as="geometry" />
        </mxCell>
        <mxCell id="-JEqV6GzJtBTvXwzg23v-0" value="START" style="ellipse;whiteSpace=wrap;html=1;" vertex="1" parent="WIyWlLk6GJQsqaUBKTNV-1">
          <mxGeometry x="339" y="100" width="150" height="80" as="geometry" />
        </mxCell>
        <mxCell id="-JEqV6GzJtBTvXwzg23v-5" style="edgeStyle=orthogonalEdgeStyle;rounded=0;orthogonalLoop=1;jettySize=auto;html=1;exitX=0;exitY=0.5;exitDx=0;exitDy=0;" edge="1" parent="WIyWlLk6GJQsqaUBKTNV-1" source="-JEqV6GzJtBTvXwzg23v-2">
          <mxGeometry relative="1" as="geometry">
            <mxPoint x="310" y="480" as="targetPoint" />
            <Array as="points">
              <mxPoint x="310" y="480" />
              <mxPoint x="310" y="480" />
            </Array>
          </mxGeometry>
        </mxCell>
        <mxCell id="-JEqV6GzJtBTvXwzg23v-8" style="edgeStyle=orthogonalEdgeStyle;rounded=0;orthogonalLoop=1;jettySize=auto;html=1;entryX=0.5;entryY=0;entryDx=0;entryDy=0;" edge="1" parent="WIyWlLk6GJQsqaUBKTNV-1" source="-JEqV6GzJtBTvXwzg23v-2" target="-JEqV6GzJtBTvXwzg23v-16">
          <mxGeometry relative="1" as="geometry">
            <mxPoint x="530" y="480" as="targetPoint" />
          </mxGeometry>
        </mxCell>
        <mxCell id="-JEqV6GzJtBTvXwzg23v-2" value="i&amp;lt;a dł" style="rhombus;whiteSpace=wrap;html=1;" vertex="1" parent="WIyWlLk6GJQsqaUBKTNV-1">
          <mxGeometry x="354" y="440" width="120" height="80" as="geometry" />
        </mxCell>
        <mxCell id="-JEqV6GzJtBTvXwzg23v-4" style="edgeStyle=orthogonalEdgeStyle;rounded=0;orthogonalLoop=1;jettySize=auto;html=1;exitX=0.5;exitY=1;exitDx=0;exitDy=0;entryX=0.5;entryY=0;entryDx=0;entryDy=0;" edge="1" parent="WIyWlLk6GJQsqaUBKTNV-1" source="-JEqV6GzJtBTvXwzg23v-3" target="-JEqV6GzJtBTvXwzg23v-2">
          <mxGeometry relative="1" as="geometry" />
        </mxCell>
        <mxCell id="-JEqV6GzJtBTvXwzg23v-3" value="&lt;div&gt;i=0&lt;/div&gt;&lt;div&gt;suma=0&lt;br&gt;&lt;/div&gt;" style="rounded=0;whiteSpace=wrap;html=1;" vertex="1" parent="WIyWlLk6GJQsqaUBKTNV-1">
          <mxGeometry x="354" y="330" width="120" height="60" as="geometry" />
        </mxCell>
        <mxCell id="-JEqV6GzJtBTvXwzg23v-7" style="edgeStyle=orthogonalEdgeStyle;rounded=0;orthogonalLoop=1;jettySize=auto;html=1;exitX=0.5;exitY=0;exitDx=0;exitDy=0;entryX=0.5;entryY=0;entryDx=0;entryDy=0;" edge="1" parent="WIyWlLk6GJQsqaUBKTNV-1" source="-JEqV6GzJtBTvXwzg23v-6" target="-JEqV6GzJtBTvXwzg23v-2">
          <mxGeometry relative="1" as="geometry" />
        </mxCell>
        <mxCell id="-JEqV6GzJtBTvXwzg23v-6" value="&lt;div&gt;suma + a[i]&lt;br&gt;&lt;/div&gt;&lt;div&gt;i=i+1&lt;/div&gt;&lt;div&gt;&lt;br&gt;&lt;/div&gt;" style="rounded=0;whiteSpace=wrap;html=1;" vertex="1" parent="WIyWlLk6GJQsqaUBKTNV-1">
          <mxGeometry x="190" y="450" width="120" height="60" as="geometry" />
        </mxCell>
        <mxCell id="-JEqV6GzJtBTvXwzg23v-9" value="NIE" style="text;html=1;align=center;verticalAlign=middle;resizable=0;points=[];autosize=1;strokeColor=none;fillColor=none;" vertex="1" parent="WIyWlLk6GJQsqaUBKTNV-1">
          <mxGeometry x="500" y="455" width="40" height="30" as="geometry" />
        </mxCell>
        <mxCell id="-JEqV6GzJtBTvXwzg23v-11" value="TAK" style="text;html=1;align=center;verticalAlign=middle;resizable=0;points=[];autosize=1;strokeColor=none;fillColor=none;" vertex="1" parent="WIyWlLk6GJQsqaUBKTNV-1">
          <mxGeometry x="314" y="455" width="40" height="30" as="geometry" />
        </mxCell>
        <mxCell id="-JEqV6GzJtBTvXwzg23v-14" style="edgeStyle=orthogonalEdgeStyle;rounded=0;orthogonalLoop=1;jettySize=auto;html=1;exitX=0.5;exitY=1;exitDx=0;exitDy=0;entryX=0.5;entryY=0;entryDx=0;entryDy=0;" edge="1" parent="WIyWlLk6GJQsqaUBKTNV-1" source="-JEqV6GzJtBTvXwzg23v-12" target="-JEqV6GzJtBTvXwzg23v-3">
          <mxGeometry relative="1" as="geometry" />
        </mxCell>
        <mxCell id="-JEqV6GzJtBTvXwzg23v-12" value="a = [1, 3, 4, 6]" style="rounded=0;whiteSpace=wrap;html=1;" vertex="1" parent="WIyWlLk6GJQsqaUBKTNV-1">
          <mxGeometry x="354" y="220" width="120" height="60" as="geometry" />
        </mxCell>
        <mxCell id="-JEqV6GzJtBTvXwzg23v-18" style="edgeStyle=orthogonalEdgeStyle;rounded=0;orthogonalLoop=1;jettySize=auto;html=1;exitX=0.5;exitY=1;exitDx=0;exitDy=0;entryX=0.5;entryY=0;entryDx=0;entryDy=0;" edge="1" parent="WIyWlLk6GJQsqaUBKTNV-1" source="-JEqV6GzJtBTvXwzg23v-16" target="-JEqV6GzJtBTvXwzg23v-17">
          <mxGeometry relative="1" as="geometry" />
        </mxCell>
        <mxCell id="-JEqV6GzJtBTvXwzg23v-16" value="Wyświetl suma " style="rounded=0;whiteSpace=wrap;html=1;" vertex="1" parent="WIyWlLk6GJQsqaUBKTNV-1">
          <mxGeometry x="500" y="550" width="120" height="60" as="geometry" />
        </mxCell>
        <mxCell id="-JEqV6GzJtBTvXwzg23v-17" value="STOP" style="ellipse;whiteSpace=wrap;html=1;" vertex="1" parent="WIyWlLk6GJQsqaUBKTNV-1">
          <mxGeometry x="480" y="650" width="160" height="80" as="geometry" />
        </mxCell>
      </root>
    </mxGraphModel>
  </diagram>
</mxfile>
